<svg width="52" height="52" viewBox="0 0 52 52" fill="none" xmlns="http://www.w3.org/2000/svg">
<path d="M14.6059 32.2709H13.4589C12.6942 32.2709 12.0059 32.0415 11.3942 31.6591C11.0118 31.3532 10.4001 31.4297 10.0942 31.8885C9.78829 32.2709 9.86476 32.8826 10.3236 33.1885C11.2412 33.8003 12.3118 34.1826 13.3824 34.1826H13.4589H14.6059C15.1412 34.1826 15.5236 33.8003 15.5236 33.265C15.5236 32.7297 15.0648 32.2709 14.6059 32.2709Z" fill="black"/>
<path d="M33.3408 31.5826C32.7291 32.0414 32.0408 32.2708 31.2761 32.1944H30.1291C29.5938 32.1944 29.2114 32.5767 29.2114 33.112C29.2114 33.6473 29.5938 34.0297 30.1291 34.0297H31.1997H31.2761C32.4232 34.0297 33.4173 33.7238 34.335 33.0356C34.7173 32.7297 34.8702 32.1944 34.5644 31.7356C34.335 31.4297 33.7232 31.3532 33.3408 31.5826Z" fill="black"/>
<path d="M38.9998 24.4707H34.5645C34.3351 24.4707 34.1822 24.5472 34.0292 24.6237C33.5704 23.6296 32.9586 22.406 32.7292 22.0237C32.2704 21.259 31.6586 20.8766 30.5116 20.5707C28.7528 20.1119 25.1586 19.959 22.3292 19.959C19.4998 19.959 15.9057 20.1119 14.1469 20.5707C13.0763 20.8766 12.4645 21.259 11.9292 22.0237C11.6998 22.406 11.0881 23.5531 10.6292 24.6237C10.4763 24.4707 10.2469 24.4707 10.0939 24.4707H5.73512C5.19982 24.4707 4.66453 24.7002 4.28217 25.0825C3.89982 25.4649 3.67041 26.0002 3.67041 26.5355V27.9884C3.67041 28.3707 3.82335 28.7531 4.05276 29.1355C4.28217 29.4413 4.58806 29.7472 4.97041 29.9002L6.72923 30.5884L6.65276 30.6649C5.96453 31.506 5.88806 32.1178 5.88806 33.1119V39.7649V43.5119C5.88806 44.4296 6.65276 45.1178 7.64688 45.1178H12.6175C13.6116 45.1178 14.3763 44.3531 14.3763 43.5119V41.7531H30.2822V43.5119C30.2822 44.4296 31.0469 45.1178 32.041 45.1178H37.0116C38.0057 45.1178 38.7704 44.3531 38.7704 43.5119V39.6884V33.0355C38.7704 32.0413 38.6175 31.4296 38.0057 30.5884L37.9292 30.5119L39.7645 29.7472C40.1469 29.5943 40.4528 29.3649 40.6822 28.9825C40.9116 28.6766 41.0645 28.2178 41.0645 27.8355V26.3825C41.0645 25.8472 40.8351 25.3119 40.4528 24.9296C40.0704 24.7002 39.5351 24.4707 38.9998 24.4707ZM13.5351 23.0943C13.6881 22.8649 13.841 22.6355 14.6057 22.406C15.9057 22.1002 18.9645 21.8707 22.3292 21.8707C25.6939 21.8707 28.7528 22.1002 30.0528 22.406C30.8175 22.6355 30.9704 22.7884 31.1234 23.0943C31.3528 23.4002 32.1175 25.0825 32.7292 26.3825L31.8116 27.8355H12.8469L11.9292 26.3825C12.4645 25.159 13.3057 23.4766 13.5351 23.0943ZM12.541 43.4355H7.72335V41.8296C7.79982 41.8296 7.87629 41.8296 7.87629 41.8296H12.541V43.4355ZM32.1175 43.4355V41.906H36.7822C36.8586 41.906 36.9351 41.906 37.0116 41.906V43.5119L32.1175 43.4355ZM39.2292 27.9884V28.0649L39.1528 28.1413L36.2469 29.2884C36.0175 29.3649 35.7881 29.5943 35.7116 29.9002C35.6351 30.206 35.7116 30.4355 35.8645 30.6649C35.8645 30.6649 36.2469 31.1237 36.7057 31.7355C37.0116 32.1178 37.0881 32.3472 37.0881 33.1119V39.7649C37.0881 39.8413 37.0881 39.8413 37.0116 39.9178C37.0116 39.9178 36.9351 39.9943 36.8586 39.9943H31.2763H13.4586H7.87629C7.79982 39.9943 7.79982 39.9943 7.72335 39.9178C7.72335 39.9178 7.64688 39.8413 7.64688 39.7649V33.1119C7.64688 32.4237 7.72335 32.1943 8.02923 31.7355C8.48806 31.1237 8.87041 30.6649 8.87041 30.6649C9.02335 30.4355 9.09982 30.1296 9.02335 29.9002C8.94688 29.6707 8.71747 29.4413 8.48806 29.2884L5.58217 28.1413L5.5057 28.0649V27.9884V26.5355C5.5057 26.459 5.5057 26.459 5.58217 26.3825C5.58217 26.3825 5.65865 26.306 5.73512 26.306H9.71159L11.6234 29.2119C11.7763 29.4413 12.0822 29.5943 12.3881 29.5943H32.3469C32.6528 29.5943 32.9586 29.4413 33.1116 29.2119L35.0234 26.306H38.9998C39.0763 26.306 39.0763 26.306 39.1528 26.3825C39.1528 26.3825 39.2292 26.459 39.2292 26.5355V27.9884Z" fill="black"/>
<path d="M27.9116 35.5596H16.8234C16.2881 35.5596 15.9058 35.9419 15.9058 36.4772C15.9058 37.0125 16.2881 37.3949 16.8234 37.3949H27.9116C28.4469 37.3949 28.8293 37.0125 28.8293 36.4772C28.8293 35.9419 28.4469 35.5596 27.9116 35.5596Z" fill="black"/>
<path d="M41.0645 18.2771C40.4527 18.7359 39.7645 18.9653 38.9998 18.8888H37.8527C37.3174 18.8888 36.9351 19.2712 36.9351 19.8065C36.9351 20.3418 37.3174 20.7241 37.8527 20.7241H38.9233H38.9998C40.1468 20.7241 41.2174 20.4183 42.0586 19.73C42.4409 19.4241 42.5939 18.8888 42.288 18.43C42.0586 18.1241 41.5233 17.9712 41.0645 18.2771Z" fill="black"/>
<path d="M48.1764 11.7768C47.794 11.3945 47.2587 11.1651 46.7235 11.1651H42.2882C42.0588 11.1651 41.9058 11.2416 41.7529 11.318C41.294 10.3239 40.6823 9.10038 40.4529 8.71803C39.994 7.95332 39.3823 7.57097 38.2352 7.26509C36.4764 6.80626 32.8823 6.65332 30.0529 6.65332C27.2235 6.65332 23.7058 6.88273 21.947 7.34156C20.8764 7.64744 20.2646 8.02979 19.7293 8.7945C19.4999 9.17685 18.8882 10.3239 18.4293 11.3945C18.2764 11.2416 18.047 11.2416 17.894 11.2416H13.4587C12.9235 11.2416 12.3882 11.471 12.0058 11.8533C11.6235 12.2357 11.394 12.771 11.394 13.3063V14.7592C11.394 15.1416 11.547 15.5239 11.7764 15.9063C12.0058 16.2121 12.3117 16.518 12.694 16.671L14.5293 17.3592L14.4529 17.4357C14.147 17.818 14.2235 18.4298 14.6058 18.7357C14.9882 19.0416 15.5999 18.9651 15.9058 18.5827C16.3646 17.971 16.747 17.5121 16.747 17.5121C16.8999 17.2827 16.9764 16.9768 16.8999 16.7474C16.8235 16.4416 16.594 16.2886 16.3646 16.1357L13.4587 14.9886L13.3823 14.9121V14.8357V13.3827C13.3823 13.3063 13.3823 13.3063 13.4587 13.2298C13.4587 13.2298 13.5352 13.1533 13.6117 13.1533H17.5882L19.4999 16.0592C19.6529 16.2886 19.9587 16.4416 20.2646 16.4416H40.2235C40.5293 16.4416 40.8352 16.2886 40.9882 16.0592L42.8235 13.0004H46.7999C46.8764 13.0004 46.8764 13.0004 46.9529 13.0768C46.9529 13.0768 47.0293 13.1533 47.0293 13.2298V14.6827C47.0293 14.7592 47.0293 14.7592 47.0293 14.7592L46.9529 14.8357L44.047 15.9827C43.8176 16.0592 43.5882 16.2886 43.5117 16.5945C43.4352 16.9004 43.5117 17.1298 43.6646 17.3592C43.6646 17.3592 44.047 17.818 44.5058 18.4298C44.8117 18.8121 44.8882 19.0416 44.8882 19.8063V26.4592C44.8882 26.5357 44.8882 26.5357 44.8117 26.6121C44.8117 26.6121 44.7352 26.6886 44.6587 26.6886H43.5117C42.9764 26.6886 42.594 27.071 42.594 27.6063C42.594 28.1416 42.9764 28.5239 43.5117 28.5239H44.6587C45.194 28.5239 45.7293 28.2945 46.1117 27.9121C46.494 27.5298 46.7235 26.9945 46.7235 26.4592V19.8827C46.7235 18.8886 46.5705 18.2768 45.9587 17.4357L45.8823 17.3592L47.7176 16.5945C48.0999 16.4416 48.4058 16.2121 48.6352 15.8298C48.8646 15.5239 49.0176 15.0651 49.0176 14.6827V13.2298C48.7882 12.6945 48.5588 12.1592 48.1764 11.7768ZM39.6117 14.5298H20.647L19.7293 13.0768C20.3411 11.8533 21.1058 10.0945 21.3352 9.78861C21.4882 9.5592 21.6411 9.32979 22.4058 9.10038C23.7058 8.7945 26.7646 8.56508 30.1293 8.56508C33.494 8.56508 36.5529 8.7945 37.8529 9.10038C38.6176 9.32979 38.7705 9.48273 38.9235 9.78861C39.1529 10.0945 39.9176 11.7768 40.5293 13.0768L39.6117 14.5298Z" fill="black"/>
</svg>
