<svg width="42" height="48" viewBox="0 0 42 48" fill="none" xmlns="http://www.w3.org/2000/svg">
    <g clip-path="url(#clip0_43_192)">
        <path d="M31.0011 17.99L29.6811 15.04C29.4838 14.442 29.1033 13.9213 28.5936 13.5515C28.0839 13.1818 27.4708 12.9819 26.8411 12.98H15.1611C14.5314 12.9819 13.9183 13.1818 13.4086 13.5515C12.8989 13.9213 12.5184 14.442 12.3211 15.04L11.0011 17.99" stroke="#241E20" stroke-width="2.2" stroke-miterlimit="10"/>
        <path d="M16.0011 25.99H21.0011H26.0011" stroke="#241E20" stroke-width="2.2" stroke-miterlimit="10"/>
        <path d="M36.0011 16.99H33.0011C32.6711 16.99 30.0011 19.99 28.0011 19.99H14.0011C12.0011 19.99 9.3311 16.99 9.0011 16.99H6.0011C5.73588 16.99 5.48153 17.0954 5.29399 17.2829C5.10645 17.4704 5.0011 17.7248 5.0011 17.99V19.34C5.0011 19.6052 5.10645 19.8596 5.29399 20.0471C5.48153 20.2346 5.73588 20.34 6.0011 20.34L8.0011 20.99V21.99C7.68363 22.3079 7.43191 22.6853 7.26033 23.1005C7.08875 23.5157 7.00065 23.9607 7.0011 24.41V25.99C7.00335 26.4094 7.0935 26.8236 7.26575 27.206C7.43799 27.5884 7.6885 27.9304 8.0011 28.21V30.99C8.0011 31.2552 8.10645 31.5095 8.29399 31.6971C8.48153 31.8846 8.73588 31.99 9.0011 31.99H13.0011C13.2663 31.99 13.5207 31.8846 13.7082 31.6971C13.8957 31.5095 14.0011 31.2552 14.0011 30.99V28.99H28.0011V30.99C28.0011 31.2552 28.1065 31.5095 28.294 31.6971C28.4815 31.8846 28.7359 31.99 29.0011 31.99H33.0011C33.2663 31.99 33.5207 31.8846 33.7082 31.6971C33.8957 31.5095 34.0011 31.2552 34.0011 30.99V28.21C34.3137 27.9304 34.5642 27.5884 34.7365 27.206C34.9087 26.8236 34.9988 26.4094 35.0011 25.99V24.41C35.0015 23.9607 34.9135 23.5157 34.7419 23.1005C34.5703 22.6853 34.3186 22.3079 34.0011 21.99V20.99L36.0011 20.34C36.2663 20.34 36.5207 20.2346 36.7082 20.0471C36.8957 19.8596 37.0011 19.6052 37.0011 19.34V17.99C37.0011 17.7248 36.8957 17.4704 36.7082 17.2829C36.5207 17.0954 36.2663 16.99 36.0011 16.99Z" stroke="#241E20" stroke-width="2.2" stroke-miterlimit="10"/>
        <path d="M31.5911 22.3799C30.2917 23.4284 28.6707 23.997 27.0011 23.9899" stroke="#241E20" stroke-width="2.2" stroke-miterlimit="10"/>
        <path d="M10.4111 22.3799C11.7105 23.4284 13.3315 23.997 15.0011 23.9899" stroke="#241E20" stroke-width="2.2" stroke-miterlimit="10"/>
        <path d="M14.0011 28.99H10.0011" stroke="#241E20" stroke-width="2.2" stroke-miterlimit="10"/>
        <path d="M32.0011 28.99H28.0011" stroke="#241E20" stroke-width="2.2" stroke-miterlimit="10"/>
        <path d="M21.0011 0.98999C19.0611 3.61999 6.0811 8.98999 1.0011 8.98999V27.99C1.0011 36.93 19.8911 46.7 21.0011 46.99C22.1111 46.71 41.0011 36.25 41.0011 28.99V8.98999C35.4411 8.98999 23.0011 3.62999 21.0011 0.98999Z" stroke="#241E20" stroke-width="2.2" stroke-linejoin="round"/>
    </g>
    <defs>
        <clipPath id="clip0_43_192">
            <rect width="42" height="47.99" fill="#241E20" transform="translate(0.00109863)"/>
        </clipPath>
    </defs>
</svg>