<svg width="36" height="36" viewBox="0 0 36 36" fill="none" xmlns="http://www.w3.org/2000/svg">
<circle cx="18" cy="18" r="17.5" stroke="white"/>
<path fill-rule="evenodd" clip-rule="evenodd" d="M8.32723 16.8879C13.5098 14.6299 16.9657 13.1413 18.6948 12.4221C23.6319 10.3686 24.6578 10.0119 25.3265 10.0001C25.4735 9.99753 25.8023 10.034 26.0153 10.2068C26.1952 10.3528 26.2447 10.5499 26.2684 10.6883C26.292 10.8266 26.3215 11.1418 26.2981 11.3881C26.0305 14.1992 24.8729 21.021 24.2839 24.1694C24.0347 25.5017 23.544 25.9484 23.069 25.9921C22.0366 26.0871 21.2527 25.3098 20.2527 24.6543C18.6881 23.6287 17.8041 22.9902 16.2853 21.9893C14.5301 20.8327 15.668 20.1969 16.6682 19.158C16.93 18.8861 21.4788 14.7487 21.5668 14.3733C21.5778 14.3264 21.588 14.1514 21.4841 14.059C21.3801 13.9666 21.2267 13.9982 21.116 14.0234C20.9591 14.059 18.4595 15.7111 13.6172 18.9798C12.9077 19.467 12.2651 19.7044 11.6893 19.6919C11.0545 19.6782 9.83352 19.333 8.92582 19.038C7.81248 18.6761 6.92763 18.4847 7.00468 17.8701C7.04481 17.55 7.48566 17.2226 8.32723 16.8879Z" fill="white"/>
</svg>