<svg width="52" height="52" viewBox="0 0 52 52" fill="none" xmlns="http://www.w3.org/2000/svg">
<path d="M44.4243 30.4926H33.2433V20.4132H42.1147V18.4805H31.3105V32.4253H46.3571V25.9989H44.4243V30.4926Z" fill="white"/>
<path d="M31.3086 50.9995H46.3551V37.0547H31.3086V50.9995ZM33.2414 38.9874H44.4223V49.0668H33.2414V38.9874Z" fill="white"/>
<path d="M38.781 26.7716L36.2394 24.2203L34.8672 25.5926L38.8777 29.5934L47.2078 20.0842L45.7486 18.8086L38.781 26.7716Z" fill="white"/>
<path d="M46.3571 8.51842H44.4243V13.0121H33.2433V2.93276H42.1147V1H31.3105V14.9448H46.3571V8.51842Z" fill="white"/>
<path d="M36.2394 6.74951L34.8672 8.1121L38.8777 12.1226L47.2078 2.60374L45.7486 1.32812L38.781 9.29108L36.2394 6.74951Z" fill="white"/>
<path d="M18.0705 13.9298C17.0558 14.0747 15.7995 14.7705 15.1617 15.534C14.7558 16.0075 13.5285 18.5201 12.6201 20.4528C12.2432 19.902 11.6054 19.5638 10.9386 19.5638H6.05839C4.92772 19.5638 4 20.4915 4 21.6221V23.8062C4 24.8982 4.85041 25.7872 5.92309 25.8645L8.6966 26.5603C8.6966 26.5603 8.75458 26.57 8.77391 26.628C8.78357 26.657 8.79324 26.7053 8.76424 26.7536L7.63358 28.4544C7.39199 28.8023 7.27602 29.4401 7.27602 30.3679V36.9199C7.27602 38.0023 7.70123 38.988 8.36803 39.7321V43.472C8.36803 44.6026 9.29575 45.5303 10.4264 45.5303H18.0705C19.2011 45.5303 20.1289 44.6026 20.1289 43.472V41.1623H28.9905V39.2296H11.5184C10.2428 39.2296 9.20878 38.1955 9.20878 36.9199V30.3679C9.20878 29.933 9.24743 29.5948 9.28609 29.4595L10.3781 27.8166C10.7453 27.2561 10.8226 26.541 10.5714 25.9225C10.3298 25.3041 9.79827 24.8402 9.16046 24.6952L6.29998 23.9704L6.06805 23.9415C6.0004 23.9415 5.94242 23.8835 5.94242 23.8158V21.6318C5.94242 21.5642 6.0004 21.5062 6.06805 21.5062H10.9386C10.9386 21.5062 11.0159 21.5255 11.0449 21.5642L12.5041 23.7482C12.91 24.328 15.3549 25.8742 16.9881 25.8742H29.0002V23.9415H16.9881C16.1184 23.9415 14.4465 22.9461 14.06 22.5885L13.886 22.3276C15.065 19.815 16.36 17.1575 16.6499 16.7806C16.9881 16.3747 17.8192 15.9205 18.3604 15.8432L18.9885 15.7562C21.2499 15.4373 24.6708 14.9445 29.0195 14.9445V13.0117C24.5355 13.0117 21.0372 13.5142 18.7179 13.8428L18.0898 13.9298H18.0705ZM18.2058 41.1623V43.472C18.2058 43.5396 18.1478 43.5976 18.0801 43.5976H10.4361C10.3684 43.5976 10.3105 43.5396 10.3105 43.472V40.9594C10.697 41.0753 11.1029 41.1623 11.5281 41.1623H18.2058Z" fill="white"/>
<path d="M19.1721 30.4936H16.8045C15.094 30.4936 13.4221 29.7978 12.2142 28.5898L10.8516 29.9524C12.4171 31.518 14.5914 32.4167 16.8141 32.4167H19.1817V30.4839L19.1721 30.4936Z" fill="white"/>
<path d="M28.9999 34.8633H19.1719V36.796H28.9999V34.8633Z" fill="white"/>
</svg>
