<svg width="36" height="36" viewBox="0 0 36 36" fill="none" xmlns="http://www.w3.org/2000/svg">
<g clip-path="url(#clip0_4868_4465)">
<path d="M18.0156 18.1238C20.8112 18.1238 23.0775 15.8575 23.0775 13.0619C23.0775 10.2663 20.8112 8 18.0156 8C15.22 8 12.9537 10.2663 12.9537 13.0619C12.9537 15.8575 15.22 18.1238 18.0156 18.1238ZM18.0156 10.5716C19.391 10.5716 20.5059 11.6865 20.5059 13.0619C20.5059 14.4373 19.391 15.5522 18.0156 15.5522C16.6402 15.5522 15.5253 14.4373 15.5253 13.0619C15.5253 11.6868 16.6402 10.5716 18.0156 10.5716ZM23.8503 18.7414C23.5644 18.1672 22.7731 17.6896 21.721 18.5186C20.2992 19.6389 18.0153 19.6389 18.0153 19.6389C18.0153 19.6389 15.7314 19.6389 14.3096 18.5186C13.2578 17.6896 12.4662 18.1672 12.1803 18.7414C11.6821 19.7423 12.2449 20.2259 13.5153 21.0415C14.6003 21.738 16.0911 21.9981 17.0541 22.0956L16.2505 22.8992C15.1186 24.0312 14.0258 25.1239 13.2677 25.8821C12.8143 26.3351 12.8143 27.0702 13.2677 27.5236L13.4044 27.6603C13.8578 28.1136 14.5926 28.1133 15.0459 27.6603L18.0288 24.6774C19.1607 25.8094 20.2535 26.9021 21.0116 27.6603C21.4647 28.1136 22.1998 28.1136 22.6531 27.6603L22.7898 27.5236C23.2432 27.0702 23.2429 26.3354 22.7898 25.8821L19.807 22.8992L19.0007 22.0932C19.9643 21.994 21.4393 21.7326 22.5153 21.0417C23.7857 20.2262 24.3485 19.7423 23.8503 18.7414Z" fill="white"/>
</g>
<circle cx="18" cy="18" r="17.5" stroke="white"/>
<defs>
<clipPath id="clip0_4868_4465">
<rect width="12.0303" height="20" fill="white" transform="translate(12 8)"/>
</clipPath>
</defs>
</svg>