<svg width="210" height="48" viewBox="0 0 210 48" fill="none" xmlns="http://www.w3.org/2000/svg">
<path d="M204.067 48H9.53809L11.3749 43.4189H205.912L204.067 48Z" fill="#D6001C"/>
<path d="M146.048 35.416C145.738 36.4932 144.721 37.15 143.777 36.8818C142.83 36.6143 142.315 35.5238 142.624 34.4466C142.933 33.3694 143.95 32.7126 144.895 32.9808C145.84 33.2482 146.357 34.3387 146.048 35.416ZM148.88 20.5467C148.88 20.5467 148.68 26.3042 144.883 29.5796L148.88 20.5467ZM67.598 34.8167C67.0242 36.129 65.5932 36.8229 64.5227 36.3608C63.4512 35.8986 63.1432 34.4698 63.7175 33.1575C64.2924 31.8453 65.6549 31.1726 66.7255 31.6354C67.797 32.0975 68.1718 33.5045 67.598 34.8167ZM40.0702 13.9953C40.0702 13.9953 41.4691 19.2563 35.5735 25.5104L40.0702 13.9953ZM200.445 35.8774C199.545 35.8774 199.853 34.8545 199.853 34.8545L202.801 27.9873L194.185 27.9998L192.619 31.6447H197.017L195.193 35.8774H176.193C175.227 35.9158 175.458 35.1385 175.458 35.1385L178.086 27.9932L174.005 27.9998L171.111 35.7337C171.005 35.98 170.633 36.4018 169.95 36.2482C169.203 36.0184 169.612 34.9896 169.612 34.9896L171.959 27.9998L167.867 27.9972L165.213 35.8774L148.63 35.8827C149.679 32.1604 146.682 30.6714 146.682 30.6714C156.873 20.8446 148.505 13.1664 148.505 13.1664L138.76 35.8774C138.76 35.8774 121.872 35.8907 120.134 35.8774C118.396 35.8648 118.962 34.9955 119.284 34.7141C120.739 33.3985 126.748 27.9919 126.748 27.9919H121.503L116.04 32.5908L122.552 17.4203H117.456L110.453 35.8648C110.453 35.8648 93.1393 35.8715 90.0085 35.8728C89.6727 35.8728 89.3662 35.6715 89.25 35.3583C89.0079 34.7035 89.048 33.8812 89.4228 33.1158C90.0645 31.8029 91.4461 31.154 92.5084 31.6665C93.1213 31.9625 93.4925 32.5802 93.5753 33.3019H96.9437C96.9869 31.0461 95.9925 29.0294 94.1491 28.1402C91.4029 26.8154 87.8309 28.4925 86.1717 31.8857C85.5238 33.2112 85.2688 34.6009 85.3551 35.8827H71.006C72.1907 32.6021 71.17 29.2267 68.5076 28.0773C65.6976 26.8637 62.1215 28.6275 60.6155 32.0697C60.0576 33.3456 59.818 34.6625 59.8802 35.8774H59.8771H46.2376C43.8404 35.7291 44.6168 33.3515 44.6168 33.3515L53.1594 13.549H46.8648L40.5693 29.0334C38.5639 33.1165 36.7265 34.2288 36.3453 34.3817C33.2462 35.6245 33.8254 31.8625 33.8254 31.8625C50.1618 15.6333 39.5204 0 39.5204 0L28.2804 30.9694C12.3932 37.818 4.74947 28.7361 4.74947 28.7361L0.552734 37.0738C14.7918 45.4122 27.5306 36.3296 27.5306 36.3296C28.5497 39.3673 29.9626 40.6868 31.4468 41.0384C35.8082 41.8422 38.9212 37.2228 38.9212 37.2228C39.8722 40.1618 42.3602 40.4253 42.7054 40.43C43.0506 40.4353 55.7447 40.43 55.7447 40.43C59.0416 40.43 60.4988 38.3934 60.5353 38.394C61.015 39.3137 61.7456 40.0506 62.7252 40.4737C64.9233 41.4231 67.6952 40.5087 69.5205 38.4205C70.2023 40.3214 71.8827 40.43 71.8827 40.43C71.8827 40.43 80.2381 40.4412 82.2233 40.43C84.1571 40.42 85.9824 38.5364 86.0776 38.4377C86.5522 39.2991 87.3059 40.373 88.6341 40.43C88.633 40.43 104.477 40.4267 105.627 40.43C107.257 40.4353 109.54 38.4092 109.54 38.4092L108.703 40.43H112.68L114.083 37.1692C115.048 40.0208 117.325 40.4253 117.61 40.43C117.895 40.4353 135.013 40.43 135.013 40.43C137.511 40.4684 139.198 38.3841 139.198 38.3841C140.134 40.1055 141.163 40.6988 142.254 40.8153C145.105 41.1192 146.981 39.0098 146.981 39.0098C147.282 40.2009 148.373 40.4313 148.633 40.43C148.894 40.4286 161.056 40.43 161.056 40.43C163.694 40.1744 165.136 38.4483 165.136 38.4483C165.732 40.283 167.126 40.7319 168.085 40.8345C170.782 41.0146 172.161 38.4139 172.161 38.4139C173.104 40.1876 174.633 40.4313 175.009 40.43C175.386 40.4286 191.628 40.43 191.628 40.43C193.876 40.2817 194.923 38.3966 194.923 38.3966C195.445 40.0764 196.443 40.4313 196.932 40.43C197.419 40.4286 207.216 40.43 207.216 40.43L209.176 35.8741L200.445 35.8774Z" fill="#D6001C"/>
</svg>