<svg width="52" height="52" viewBox="0 0 52 52" fill="none" xmlns="http://www.w3.org/2000/svg">
<path d="M14.6055 32.2719H13.4584C12.6937 32.2719 12.0055 32.0424 11.3937 31.6601C11.0113 31.3542 10.3996 31.4307 10.0937 31.8895C9.7878 32.2719 9.86427 32.8836 10.3231 33.1895C11.2407 33.8013 12.3113 34.1836 13.3819 34.1836H13.4584H14.6055C15.1407 34.1836 15.5231 33.8013 15.5231 33.266C15.5231 32.7307 15.0643 32.2719 14.6055 32.2719Z" fill="white"/>
<path d="M33.3403 31.5826C32.7286 32.0414 32.0403 32.2708 31.2756 32.1944H30.1286C29.5933 32.1944 29.2109 32.5767 29.2109 33.112C29.2109 33.6473 29.5933 34.0297 30.1286 34.0297H31.1992H31.2756C32.4227 34.0297 33.4168 33.7238 34.3345 33.0356C34.7168 32.7297 34.8698 32.1944 34.5639 31.7356C34.3345 31.4297 33.7227 31.3532 33.3403 31.5826Z" fill="white"/>
<path d="M38.9993 24.4688H34.564C34.3346 24.4688 34.1817 24.5453 34.0287 24.6217C33.5699 23.6276 32.9582 22.4041 32.7287 22.0217C32.2699 21.257 31.6582 20.8747 30.5111 20.5688C28.7523 20.11 25.1582 19.957 22.3287 19.957C19.4993 19.957 15.9052 20.11 14.1464 20.5688C13.0758 20.8747 12.464 21.257 11.9287 22.0217C11.6993 22.4041 11.0876 23.5511 10.6287 24.6217C10.4758 24.4688 10.2464 24.4688 10.0935 24.4688H5.73463C5.19933 24.4688 4.66404 24.6982 4.28169 25.0806C3.89933 25.4629 3.66992 25.9982 3.66992 26.5335V27.9864C3.66992 28.3688 3.82286 28.7511 4.05227 29.1335C4.28169 29.4394 4.58757 29.7453 4.96992 29.8982L6.72875 30.5864L6.65227 30.6629C5.96404 31.5041 5.88757 32.1159 5.88757 33.11V39.7629V43.51C5.88757 44.4276 6.65227 45.1159 7.64639 45.1159H12.617C13.6111 45.1159 14.3758 44.3512 14.3758 43.51V41.7511H30.2817V43.51C30.2817 44.4276 31.0464 45.1159 32.0405 45.1159H37.0111C38.0052 45.1159 38.7699 44.3512 38.7699 43.51V39.6864V33.0335C38.7699 32.0394 38.617 31.4276 38.0052 30.5864L37.9287 30.51L39.764 29.7453C40.1464 29.5923 40.4523 29.3629 40.6817 28.9806C40.9111 28.6747 41.064 28.2159 41.064 27.8335V26.3806C41.064 25.8453 40.8346 25.31 40.4523 24.9276C40.0699 24.6982 39.5346 24.4688 38.9993 24.4688ZM13.5346 23.0923C13.6876 22.8629 13.8405 22.6335 14.6052 22.4041C15.9052 22.0982 18.964 21.8688 22.3287 21.8688C25.6935 21.8688 28.7523 22.0982 30.0523 22.4041C30.817 22.6335 30.9699 22.7864 31.1229 23.0923C31.3523 23.3982 32.117 25.0806 32.7287 26.3806L31.8111 27.8335H12.8464L11.9287 26.3806C12.464 25.157 13.3052 23.4747 13.5346 23.0923ZM12.5405 43.4335H7.72286V41.8276C7.79933 41.8276 7.8758 41.8276 7.8758 41.8276H12.5405V43.4335ZM32.117 43.4335V41.9041H36.7817C36.8582 41.9041 36.9346 41.9041 37.0111 41.9041V43.51L32.117 43.4335ZM39.2287 27.9864V28.0629L39.1523 28.1394L36.2464 29.2864C36.017 29.3629 35.7876 29.5923 35.7111 29.8982C35.6346 30.2041 35.7111 30.4335 35.864 30.6629C35.864 30.6629 36.2464 31.1217 36.7052 31.7335C37.0111 32.1159 37.0876 32.3453 37.0876 33.11V39.7629C37.0876 39.8394 37.0876 39.8394 37.0111 39.9159C37.0111 39.9159 36.9346 39.9923 36.8582 39.9923H31.2758H13.4582H7.8758C7.79933 39.9923 7.79933 39.9923 7.72286 39.9159C7.72286 39.9159 7.64639 39.8394 7.64639 39.7629V33.11C7.64639 32.4217 7.72286 32.1923 8.02875 31.7335C8.48757 31.1217 8.86992 30.6629 8.86992 30.6629C9.02286 30.4335 9.09933 30.1276 9.02286 29.8982C8.94639 29.6688 8.71698 29.4394 8.48757 29.2864L5.58169 28.1394L5.50522 28.0629V27.9864V26.5335C5.50522 26.457 5.50522 26.457 5.58169 26.3806C5.58169 26.3806 5.65816 26.3041 5.73463 26.3041H9.7111L11.6229 29.21C11.7758 29.4394 12.0817 29.5923 12.3876 29.5923H32.3464C32.6523 29.5923 32.9582 29.4394 33.1111 29.21L35.0229 26.3041H38.9993C39.0758 26.3041 39.0758 26.3041 39.1523 26.3806C39.1523 26.3806 39.2287 26.457 39.2287 26.5335V27.9864Z" fill="white"/>
<path d="M27.9121 35.5586H16.8239C16.2886 35.5586 15.9062 35.9409 15.9062 36.4762C15.9062 37.0115 16.2886 37.3939 16.8239 37.3939H27.9121C28.4474 37.3939 28.8298 37.0115 28.8298 36.4762C28.8298 35.9409 28.4474 35.5586 27.9121 35.5586Z" fill="white"/>
<path d="M41.065 18.2761C40.4532 18.7349 39.765 18.9643 39.0003 18.8879H37.8532C37.3179 18.8879 36.9355 19.2702 36.9355 19.8055C36.9355 20.3408 37.3179 20.7232 37.8532 20.7232H38.9238H39.0003C40.1473 20.7232 41.2179 20.4173 42.0591 19.729C42.4414 19.4232 42.5944 18.8879 42.2885 18.429C42.0591 18.1232 41.5238 17.9702 41.065 18.2761Z" fill="white"/>
<path d="M48.1749 11.7759C47.7926 11.3935 47.2573 11.1641 46.722 11.1641H42.2867C42.0573 11.1641 41.9043 11.2406 41.7514 11.317C41.2926 10.3229 40.6808 9.0994 40.4514 8.71705C39.9926 7.95234 39.3808 7.56999 38.2338 7.26411C36.4749 6.80529 32.8808 6.65234 30.0514 6.65234C27.222 6.65234 23.7043 6.88176 21.9455 7.34058C20.8749 7.64646 20.2632 8.02881 19.7279 8.79352C19.4985 9.17587 18.8867 10.3229 18.4279 11.3935C18.2749 11.2406 18.0455 11.2406 17.8926 11.2406H13.4573C12.922 11.2406 12.3867 11.47 12.0043 11.8523C11.622 12.2347 11.3926 12.77 11.3926 13.3053V14.7582C11.3926 15.1406 11.5455 15.5229 11.7749 15.9053C12.0043 16.2112 12.3102 16.517 12.6926 16.67L14.5279 17.3582L14.4514 17.4347C14.1455 17.817 14.222 18.4288 14.6043 18.7347C14.9867 19.0406 15.5985 18.9641 15.9043 18.5818C16.3632 17.97 16.7455 17.5112 16.7455 17.5112C16.8985 17.2818 16.9749 16.9759 16.8985 16.7465C16.822 16.4406 16.5926 16.2876 16.3632 16.1347L13.4573 14.9876L13.3808 14.9112V14.8347V13.3818C13.3808 13.3053 13.3808 13.3053 13.4573 13.2288C13.4573 13.2288 13.5338 13.1523 13.6102 13.1523H17.5867L19.4985 16.0582C19.6514 16.2876 19.9573 16.4406 20.2632 16.4406H40.222C40.5279 16.4406 40.8338 16.2876 40.9867 16.0582L42.822 12.9994H46.7985C46.8749 12.9994 46.8749 12.9994 46.9514 13.0759C46.9514 13.0759 47.0279 13.1523 47.0279 13.2288V14.6818C47.0279 14.7582 47.0279 14.7582 47.0279 14.7582L46.9514 14.8347L44.0455 15.9818C43.8161 16.0582 43.5867 16.2876 43.5102 16.5935C43.4338 16.8994 43.5102 17.1288 43.6632 17.3582C43.6632 17.3582 44.0455 17.817 44.5043 18.4288C44.8102 18.8112 44.8867 19.0406 44.8867 19.8053V26.4582C44.8867 26.5347 44.8867 26.5347 44.8102 26.6112C44.8102 26.6112 44.7338 26.6876 44.6573 26.6876H43.5102C42.9749 26.6876 42.5926 27.07 42.5926 27.6053C42.5926 28.1406 42.9749 28.5229 43.5102 28.5229H44.6573C45.1926 28.5229 45.7279 28.2935 46.1102 27.9112C46.4926 27.5288 46.722 26.9935 46.722 26.4582V19.8818C46.722 18.8876 46.569 18.2759 45.9573 17.4347L45.8808 17.3582L47.7161 16.5935C48.0985 16.4406 48.4043 16.2112 48.6338 15.8288C48.8632 15.5229 49.0161 15.0641 49.0161 14.6818V13.2288C48.7867 12.6935 48.5573 12.1582 48.1749 11.7759ZM39.6102 14.5288H20.6455L19.7279 13.0759C20.3396 11.8523 21.1043 10.0935 21.3338 9.78764C21.4867 9.55823 21.6396 9.32881 22.4043 9.0994C23.7043 8.79352 26.7632 8.56411 30.1279 8.56411C33.4926 8.56411 36.5514 8.79352 37.8514 9.0994C38.6161 9.32881 38.769 9.48176 38.922 9.78764C39.1514 10.0935 39.9161 11.7759 40.5279 13.0759L39.6102 14.5288Z" fill="white"/>
</svg>
