<svg width="52" height="52" viewBox="0 0 52 52" fill="none" xmlns="http://www.w3.org/2000/svg">
<path fill-rule="evenodd" clip-rule="evenodd" d="M25.9996 9.90156C17.1078 9.90156 9.89961 17.1098 9.89961 26.0016C9.89961 34.8933 17.1078 42.1016 25.9996 42.1016C34.8914 42.1016 42.0996 34.8933 42.0996 26.0016C42.0996 17.1098 34.8914 9.90156 25.9996 9.90156ZM8.09961 26.0016C8.09961 16.1157 16.1137 8.10156 25.9996 8.10156C35.8855 8.10156 43.8996 16.1157 43.8996 26.0016C43.8996 35.8875 35.8855 43.9016 25.9996 43.9016C16.1137 43.9016 8.09961 35.8875 8.09961 26.0016Z" fill="white"/>
<path fill-rule="evenodd" clip-rule="evenodd" d="M14.2929 27.5312H18.5959C18.9334 27.5329 19.2629 27.6345 19.5428 27.8231C19.8193 28.0094 20.0352 28.2725 20.164 28.5799C20.8027 30.0358 21.9654 31.1985 23.4214 31.8373C23.7287 31.9661 23.9918 32.1819 24.1782 32.4585C24.3668 32.7384 24.4683 33.0678 24.47 33.4053L24.47 33.4098L24.47 37.7199C24.4667 37.9819 24.403 38.2397 24.2842 38.4733C24.1654 38.7068 23.9944 38.9099 23.7846 39.0669C23.5747 39.2239 23.3316 39.3305 23.074 39.3785C22.8168 39.4265 22.5521 39.4148 22.3001 39.3443C19.9975 38.7053 17.8994 37.4814 16.2096 35.7916C14.5196 34.1016 13.2956 32.003 12.6566 29.7L13.5238 29.4593L12.6573 29.7024C12.5865 29.4501 12.5747 29.1849 12.6227 28.9273C12.6708 28.6697 12.7774 28.4266 12.9344 28.2167C13.0913 28.0069 13.2945 27.8359 13.528 27.7171C13.7615 27.5983 14.0192 27.5347 14.2813 27.5313L14.2929 27.5312ZM14.4229 29.3312C14.9871 31.2909 16.0396 33.076 17.4824 34.5189C18.9253 35.9617 20.7104 37.0142 22.67 37.5784V33.4732C20.8231 32.6546 19.3467 31.1781 18.5281 29.3312H14.4229Z" fill="white"/>
<path fill-rule="evenodd" clip-rule="evenodd" d="M25.9994 13.9758C23.4098 13.9758 20.889 14.8099 18.8105 16.3545C16.7829 17.8613 15.2814 19.966 14.5156 22.3699C22.0707 20.6131 29.9282 20.6131 37.4832 22.3699C36.7174 19.966 35.2159 17.8613 33.1884 16.3545C31.1098 14.8099 28.5891 13.9758 25.9994 13.9758ZM17.7368 14.9098C20.1258 13.1345 23.023 12.1758 25.9994 12.1758C28.9758 12.1758 31.8731 13.1345 34.262 14.9098C36.651 16.6852 38.4046 19.1828 39.2631 22.0327L39.2683 22.05L39.2728 22.0676C39.3468 22.3544 39.3449 22.6554 39.2675 22.9412C39.1901 23.2271 39.0397 23.4879 38.8312 23.6982C38.6227 23.9084 38.3631 24.0609 38.0779 24.1407C37.7949 24.2198 37.4963 24.2247 37.2109 24.1548C29.8375 22.4181 22.1614 22.4181 14.7879 24.1548C14.5025 24.2247 14.2039 24.2198 13.9209 24.1407C13.6357 24.0609 13.3762 23.9084 13.1676 23.6982C12.9591 23.4879 12.8087 23.2271 12.7313 22.9412C12.6539 22.6554 12.6521 22.3544 12.726 22.0676L12.7305 22.05L12.7358 22.0327C13.5942 19.1828 15.3479 16.6852 17.7368 14.9098Z" fill="white"/>
<path fill-rule="evenodd" clip-rule="evenodd" d="M33.4079 27.5312H37.7181C37.9801 27.5346 38.2379 27.5983 38.4714 27.7171C38.7049 27.8359 38.9081 28.0069 39.065 28.2167C39.222 28.4266 39.3286 28.6697 39.3767 28.9273C39.4246 29.1845 39.4129 29.4492 39.3425 29.7012C38.7034 32.0038 37.4795 34.1019 35.7898 35.7916C34.0997 37.4817 32.0012 38.7057 29.6981 39.3447C29.4465 39.4149 29.1821 39.4264 28.9254 39.3785C28.6678 39.3305 28.4247 39.2239 28.2148 39.0669C28.005 38.9099 27.834 38.7068 27.7152 38.4733C27.5963 38.2397 27.5328 37.9819 27.5294 37.7199L27.5293 37.7084L27.5294 33.4053C27.5311 33.0678 27.6326 32.7384 27.8212 32.4585C28.0076 32.1819 28.2707 31.9661 28.578 31.8373C30.034 31.1985 31.1967 30.0358 31.8354 28.5798C31.9642 28.2725 32.1801 28.0094 32.4566 27.8231C32.7365 27.6345 33.0659 27.5329 33.4034 27.5313L33.4079 27.5312ZM33.4713 29.3312C32.6527 31.1781 31.1763 32.6546 29.3294 33.4732V37.5784C31.289 37.0142 33.0741 35.9617 34.517 34.5189C35.9598 33.076 37.0123 31.2909 37.5765 29.3312H33.4713Z" fill="white"/>
</svg>
