<svg width="52" height="52" viewBox="0 0 52 52" fill="none" xmlns="http://www.w3.org/2000/svg">
<path d="M11.0113 21.5639C13.7642 21.5639 15.9054 19.2698 15.9054 16.3639V14.9109C15.9054 12.0051 13.7642 9.71094 11.0113 9.71094C8.25836 9.71094 6.11719 12.0815 6.11719 14.9874V16.4403C6.11719 19.3462 8.25836 21.5639 11.0113 21.5639ZM7.95248 14.9874C7.95248 13.0756 9.32895 11.6227 11.0113 11.6227C12.6937 11.6227 14.0701 13.0756 14.0701 14.9874V16.4403C14.0701 18.3521 12.6937 19.8051 11.0113 19.8051C9.32895 19.8051 7.95248 18.3521 7.95248 16.4403V14.9874Z" fill="white"/>
<path d="M24.9289 28.4456C24.9289 28.1398 24.8524 27.8339 24.6994 27.6045C24.5465 27.375 24.3171 27.1456 24.0112 26.9927C23.7053 26.8398 23.3995 26.7633 23.0936 26.7633H19.8053C19.423 26.3045 18.8112 25.5398 18.123 24.775C16.8994 23.2456 15.4465 22.9398 13.4583 22.8633H7.64651C3.82298 22.8633 2.14062 26.075 2.14062 29.3633C2.14062 30.5868 2.52298 31.428 3.05827 32.4986C3.21121 32.8045 3.36415 33.1103 3.5171 33.4927L4.35827 35.175C4.35827 35.2515 4.43474 35.2515 4.43474 35.328C5.04651 36.1692 5.5818 36.7045 6.1171 37.0103V40.6809C6.1171 41.2162 6.49945 41.5986 7.03474 41.5986C7.57004 41.5986 7.95239 41.2162 7.95239 40.6809V37.4692L9.78768 37.8515C9.78768 38.1574 9.86415 38.3868 10.0171 38.6927C10.17 38.9221 10.3994 39.1515 10.7053 39.3045C11.0112 39.4574 11.3171 39.5339 11.623 39.5339H16.1347V40.6045C16.1347 41.1398 16.5171 41.5221 17.0524 41.5221C17.5877 41.5221 17.97 41.1398 17.97 40.6045V39.5339H18.6583C18.9642 39.5339 19.3465 39.4574 19.6524 39.228C19.9583 39.075 20.1877 38.7692 20.3406 38.4633L21.3347 36.475H21.7171C22.2524 36.475 22.7877 36.3221 23.17 36.0162C23.6289 35.7103 23.9347 35.328 24.1642 34.8692L24.8524 33.4162C25.1583 32.8045 25.0818 32.1162 24.6994 31.5045C24.5465 31.1986 24.3171 31.0456 24.0112 30.8927L24.7759 29.2868C24.8524 29.1339 24.9289 28.828 24.9289 28.4456ZM5.19945 32.575C5.04651 32.1927 4.89357 31.8868 4.74062 31.5809C4.2818 30.6633 4.05239 30.128 4.05239 29.2868C4.05239 27.1456 5.04651 24.6221 7.72298 24.6221H13.4583C15.2171 24.6986 16.0583 25.0045 16.7465 25.9221C16.9759 26.228 17.2053 26.5339 17.4347 26.7633H16.1347C15.8289 26.7633 15.4465 26.8398 15.1406 27.0692C14.8347 27.2221 14.6053 27.528 14.4524 27.8339L12.1583 32.575L10.6289 32.0398C10.0171 31.8103 9.78768 31.6574 9.55827 30.9692L8.64063 28.7515C8.48768 28.2927 7.95239 28.0633 7.4171 28.2162C6.95827 28.3692 6.72886 28.9045 6.8818 29.4398L7.79945 31.6574C8.25827 32.8809 9.02298 33.3398 10.0171 33.7221L11.3936 34.1809L10.3994 36.1692L7.79945 35.6339C7.11121 35.5574 6.72886 35.4809 5.96415 34.4103L5.19945 32.575ZM18.5818 37.6986H16.9759H11.623L16.1347 28.5221H23.0936L22.023 30.6633H19.8818C19.6524 30.6633 19.4994 30.7398 19.3465 30.8927C19.27 30.9692 16.8994 32.8809 17.1289 35.7103C17.2053 36.1692 17.5877 36.5515 18.0465 36.5515H19.1936L18.5818 37.6986ZM23.0936 32.728L22.4053 34.1809C22.3289 34.3339 22.1759 34.4868 22.0994 34.5633C22.023 34.6398 21.7936 34.7162 21.5642 34.7162H19.0406C19.27 33.7221 19.9583 32.8809 20.2642 32.575H22.5583C22.5583 32.575 22.5583 32.575 22.6347 32.575H23.0936C23.0936 32.575 23.0936 32.6515 23.0936 32.728Z" fill="white"/>
<path d="M39.6115 29.5944C41.4468 29.5944 42.6704 29.1355 43.8939 28.5238C44.3527 28.2944 44.5057 27.7591 44.2762 27.3003C44.0468 26.8414 43.5115 26.6885 43.0527 26.9179C41.9821 27.4532 41.0645 27.8355 39.6115 27.8355H36.4762C35.9409 27.8355 35.5586 28.2179 35.5586 28.7532C35.5586 29.2885 35.9409 29.6708 36.4762 29.6708H39.6115V29.5944Z" fill="white"/>
<path d="M49.3226 18.3516C48.9402 17.9692 48.4814 17.8163 47.9461 17.8163H43.5108C43.2049 17.8163 42.8991 17.8927 42.5932 18.0457C42.3638 18.1222 42.2108 18.2751 42.0579 18.5045C41.4461 16.9751 40.6814 15.0633 40.2991 14.528C39.6873 13.6104 38.9226 13.0751 37.5461 12.6927C35.3285 12.1574 32.1167 11.8516 27.9873 11.8516C23.7814 11.8516 20.5696 12.1574 18.4285 12.6927C17.9696 12.8457 17.6638 13.3045 17.7402 13.8398C17.8932 14.2986 18.352 14.6045 18.8873 14.528C20.8755 13.9927 24.0873 13.7633 27.9873 13.7633C31.8873 13.7633 35.099 14.0692 37.0873 14.528C38.2343 14.8339 38.4638 15.1398 38.7696 15.5222C38.9991 15.9045 39.9167 18.1986 40.7579 20.3398L40.5285 20.6457C39.9932 21.4104 39.0755 21.7927 37.9285 21.7927H21.0285C20.4932 21.7927 20.1108 22.1751 20.1108 22.7104C20.1108 23.2457 20.4932 23.628 21.0285 23.628H38.0049C39.2285 23.628 40.9873 23.3222 42.1343 21.6398L43.4343 19.6516H43.5108H47.9461L48.0226 19.728V21.7163H47.9461L43.7402 22.7869C43.4343 22.8633 43.2049 23.0927 43.1285 23.3986C43.052 23.7045 43.052 24.0104 43.2814 24.2398L46.0343 27.9104C46.0343 28.0633 46.1108 28.3692 46.1108 28.6751V33.6457C46.1108 34.181 45.8814 34.7163 45.4991 35.0986C45.1167 35.481 44.5814 35.7104 44.0461 35.7104H25.999C25.4638 35.7104 25.0814 36.0927 25.0814 36.628C25.0814 37.1633 25.4638 37.5457 25.999 37.5457H37.0873V39.6104C37.0873 40.1457 37.3167 40.6045 37.6226 40.9869C38.0049 41.3692 38.4638 41.5222 38.999 41.5222H44.9638C45.4991 41.5222 45.9579 41.2927 46.3402 40.9869C46.7226 40.6045 46.8755 40.1457 46.8755 39.6104V36.2457C47.4873 35.5574 47.8696 34.6398 47.8696 33.6457V28.6751C47.8696 27.8339 47.7932 27.2221 47.4873 26.8398L45.4991 24.1633L48.4049 23.3986C49.0167 23.2457 49.8579 22.8633 49.8579 21.6398V19.6516C49.8579 19.1927 49.6285 18.6574 49.3226 18.3516ZM44.9638 39.6869H38.999L38.9226 39.6104V37.5457H43.9696C44.352 37.5457 44.7343 37.4692 45.0402 37.3927V39.6104L44.9638 39.6869Z" fill="white"/>
<path d="M34.488 33.5697C35.0233 33.5697 35.4056 33.1873 35.4056 32.652C35.4056 32.1167 35.0233 31.7344 34.488 31.7344H27.988C27.4527 31.7344 27.0703 32.1167 27.0703 32.652C27.0703 33.1873 27.4527 33.5697 27.988 33.5697H34.488Z" fill="white"/>
</svg>
