<svg width="52" height="52" viewBox="0 0 52 52" fill="none" xmlns="http://www.w3.org/2000/svg">
<path d="M47.1816 14.222C46.9522 14.0691 46.6463 13.9926 46.3404 14.0691L33.4933 18.3514L27.6816 16.4397L27.0698 18.1985L32.4992 20.0338V44.5044L19.1169 41.0632V35.5573H17.2816V41.1397L7.03451 44.5808V26.3808H5.19922V45.8808C5.19922 46.1867 5.35216 46.4926 5.58157 46.6455C5.73451 46.722 5.96392 46.7985 6.11687 46.7985C6.19334 46.7985 6.34628 46.7985 6.42275 46.722L18.3522 42.5926L33.2639 46.4161C33.4169 46.4926 33.6463 46.4161 33.7992 46.4161L46.9522 41.4455C47.3345 41.2926 47.5639 40.9867 47.5639 40.6044V14.9867C47.5639 14.6808 47.411 14.3749 47.1816 14.222ZM45.7286 40.0691L34.411 44.2749V19.9573L45.7286 16.2102V40.0691Z" fill="white"/>
<path d="M14.3757 31.7362C14.5286 32.1185 14.8345 32.4244 15.2169 32.4244C15.5992 32.4244 15.9816 32.195 16.058 31.7362C17.0522 28.4479 18.9639 26.3068 20.7992 24.3185C23.0933 21.795 25.2345 19.4244 25.2345 15.295C25.2345 9.94205 20.5698 5.27734 15.2169 5.27734C9.86392 5.27734 5.19922 9.94205 5.19922 15.295C5.19922 19.4244 7.3404 21.795 9.63451 24.3185C11.4698 26.3068 13.3816 28.3715 14.3757 31.7362ZM15.2169 7.03617C19.4992 7.03617 23.3992 10.9362 23.3992 15.2185C23.3992 18.6597 21.5639 20.6479 19.4227 23.0185C17.9698 24.6244 16.3639 26.4597 15.1404 28.9068C13.9933 26.4597 12.3875 24.6244 10.858 23.0185C8.71687 20.6479 6.88157 18.6597 6.88157 15.2185C7.03451 10.9362 10.9345 7.03617 15.2169 7.03617Z" fill="white"/>
<path d="M15.2167 19.1951C17.4344 19.1951 19.1932 17.4363 19.1932 15.2187C19.1932 13.0775 17.4344 11.2422 15.2167 11.2422C12.9991 11.2422 11.2402 13.001 11.2402 15.2187C11.2402 17.4363 12.9991 19.1951 15.2167 19.1951ZM15.2167 13.0775C16.3638 13.0775 17.3579 13.9951 17.3579 15.2187C17.3579 16.4422 16.4402 17.3598 15.2167 17.3598C13.9932 17.3598 13.0755 16.4422 13.0755 15.2187C13.0755 13.9951 14.0696 13.0775 15.2167 13.0775Z" fill="white"/>
</svg>
