<svg width="52" height="52" viewBox="0 0 52 52" fill="none" xmlns="http://www.w3.org/2000/svg">
<path d="M26.0001 6.72949C15.3707 6.72949 6.72949 15.3707 6.72949 26.0001C6.72949 36.6295 15.3707 45.2707 26.0001 45.2707C36.6295 45.2707 45.2707 36.6295 45.2707 26.0001C45.2707 15.3707 36.6295 6.72949 26.0001 6.72949ZM26.0001 43.4354C16.3648 43.4354 8.56479 35.6354 8.56479 26.0001C8.56479 16.3648 16.3648 8.56479 26.0001 8.56479C35.6354 8.56479 43.4354 16.3648 43.4354 26.0001C43.4354 35.6354 35.6354 43.4354 26.0001 43.4354Z" fill="black"/>
<path d="M23.1709 32.3473C21.565 31.6591 20.3415 30.3591 19.6532 28.8297C19.5003 28.5238 19.2709 28.2179 18.965 27.9885C18.6591 27.7591 18.3532 27.6826 17.9709 27.6826H13.3062C13.0003 27.6826 12.7709 27.7591 12.5415 27.912C12.3121 28.065 12.0827 28.2179 11.9297 28.4473C11.7768 28.6767 11.6238 28.9061 11.6238 29.212C11.5474 29.5179 11.6238 29.7473 11.6238 30.0532C12.3121 32.5003 13.6121 34.7944 15.4474 36.6297C17.2827 38.465 19.5003 39.765 22.0238 40.4532C22.1768 40.5297 22.3297 40.5297 22.4827 40.5297C22.5591 40.5297 22.7121 40.5297 22.7885 40.5297C23.0944 40.4532 23.3238 40.3767 23.5532 40.2238C23.7827 40.0709 23.9356 39.8414 24.0885 39.612C24.2415 39.3826 24.3179 39.0767 24.3179 38.8473V34.1826C24.3179 33.8003 24.2415 33.4944 24.0121 33.1885C23.7827 32.7297 23.4768 32.5003 23.1709 32.3473ZM16.7474 35.2532C15.1415 33.6473 13.9944 31.6591 13.3062 29.5944H17.8944C18.8121 31.5826 20.3415 33.1885 22.4062 34.0297V38.6179C20.3415 38.0061 18.3532 36.7826 16.7474 35.2532Z" fill="black"/>
<path d="M39.0001 23.9353C39.306 23.8589 39.5354 23.7059 39.7648 23.4765C39.9942 23.2471 40.1472 23.0177 40.2236 22.7118C40.3001 22.4059 40.3001 22.1 40.2236 21.7942C39.306 18.7353 37.3942 16.0589 34.8707 14.1471C32.3472 12.2353 29.1354 11.2412 26.0001 11.2412C22.8648 11.2412 19.6531 12.3118 17.1295 14.1471C14.606 16.0589 12.6942 18.7353 11.7766 21.8706C11.7001 22.1765 11.7001 22.4824 11.7766 22.7883C11.8531 23.0942 12.006 23.4 12.2354 23.553C12.4648 23.7824 12.6942 23.9353 13.0001 24.0118C13.1531 24.0883 13.306 24.0883 13.4589 24.0883C13.6119 24.0883 13.7648 24.0883 13.9178 24.0118C21.8707 22.1765 30.206 22.1765 38.1589 24.0118C38.3884 24.0118 38.6942 24.0118 39.0001 23.9353ZM13.5354 22.1765C14.3766 19.5765 15.9825 17.2059 18.2001 15.6C20.4178 13.9177 23.2472 13 26.0001 13C28.7531 13 31.5825 13.9177 33.8001 15.6C36.0178 17.2059 37.7001 19.5765 38.4648 22.1765C30.2825 20.2647 21.7178 20.2647 13.5354 22.1765Z" fill="black"/>
<path d="M40.3764 29.1359C40.3 28.83 40.2235 28.6006 40.0706 28.3712C39.9176 28.1417 39.6882 27.9888 39.4588 27.8359C39.2294 27.6829 38.9235 27.6829 38.6941 27.6064H34.0294C33.647 27.6064 33.3411 27.6829 33.0353 27.9123C32.7294 28.1417 32.5 28.3712 32.4235 28.677C31.7353 30.2829 30.4353 31.5064 28.9058 32.1947C28.6 32.3476 28.2941 32.577 28.0647 32.8829C27.8353 33.1888 27.7588 33.4947 27.7588 33.877V38.5417C27.7588 38.8476 27.8353 39.077 27.9882 39.3064C28.1411 39.5359 28.2941 39.7653 28.5235 39.9182C28.7529 40.0712 28.9823 40.2241 29.2882 40.2241C29.3647 40.2241 29.5176 40.2241 29.5941 40.2241C29.747 40.2241 29.9 40.2241 30.0529 40.1476C32.5 39.4594 34.7941 38.1594 36.6294 36.3241C38.4647 34.4888 39.7647 32.2712 40.4529 29.7476C40.4529 29.7476 40.4529 29.4417 40.3764 29.1359ZM35.2529 35.2535C33.647 36.8594 31.6588 38.0064 29.5941 38.6182V34.03C31.5823 33.1123 33.1882 31.5829 34.0294 29.5182L38.6176 29.4417C38.0058 31.6594 36.8588 33.6476 35.2529 35.2535Z" fill="black"/>
</svg>
