<svg width="51" height="56" viewBox="0 0 51 56" fill="none" xmlns="http://www.w3.org/2000/svg">
    <path d="M31.5632 12.1501C35.0212 12.7027 38.2591 14.2001 40.9196 16.4771C43.58 18.7541 45.5595 21.7221 46.6393 25.0532C47.7191 28.3844 47.8574 31.9492 47.0387 35.3539C46.2201 38.7587 44.4764 41.871 42.0002 44.3472C39.5241 46.8233 36.4118 48.567 33.007 49.3856C29.6022 50.2043 26.0375 50.0661 22.7063 48.9862C19.3751 47.9064 16.4072 45.927 14.1302 43.2665C11.8532 40.6061 10.3558 37.3681 9.80322 33.9101" stroke="#241E20" stroke-width="2.2" stroke-miterlimit="10"/>
    <path d="M6.66315 30.9101H13.7431C14.2226 30.8994 14.6823 30.7169 15.0384 30.3956C15.3945 30.0744 15.6233 29.6359 15.6831 29.1601C16.1044 26.3553 17.4153 23.7599 19.4226 21.7562C21.4299 19.7525 24.0276 18.4463 26.8331 18.0301C27.302 17.9664 27.7332 17.7386 28.0499 17.387C28.3667 17.0355 28.5485 16.583 28.5631 16.1101V9.01007C28.564 8.73341 28.5075 8.45957 28.3971 8.20586C28.2868 7.95216 28.125 7.72411 27.922 7.53614C27.719 7.34817 27.4792 7.20436 27.2177 7.11381C26.9563 7.02326 26.6789 6.98794 26.4031 7.01007C20.8389 7.59916 15.645 10.0789 11.6885 14.0354C7.732 17.9919 5.25224 23.1858 4.66315 28.7501C4.64102 29.0259 4.67633 29.3032 4.76688 29.5647C4.85743 29.8261 5.00124 30.0659 5.18921 30.2689C5.37718 30.4719 5.60522 30.6337 5.85892 30.7441C6.11262 30.8544 6.38648 30.911 6.66315 30.9101Z" stroke="#241E20" stroke-width="2.2" stroke-miterlimit="10"/>
    <path d="M28.5632 37.9102C32.4292 37.9102 35.5632 34.7761 35.5632 30.9102C35.5632 27.0442 32.4292 23.9102 28.5632 23.9102C24.6972 23.9102 21.5632 27.0442 21.5632 30.9102C21.5632 34.7761 24.6972 37.9102 28.5632 37.9102Z" stroke="#241E20" stroke-width="2.2" stroke-miterlimit="10"/>
    <path d="M28.5632 33.9102C30.2201 33.9102 31.5632 32.567 31.5632 30.9102C31.5632 29.2533 30.2201 27.9102 28.5632 27.9102C26.9064 27.9102 25.5632 29.2533 25.5632 30.9102C25.5632 32.567 26.9064 33.9102 28.5632 33.9102Z" stroke="#241E20" stroke-width="2.2" stroke-miterlimit="10"/>
    <path d="M24.5632 11.9102V13.9102" stroke="#241E20" stroke-width="2.2" stroke-miterlimit="10"/>
    <path d="M10.5632 25.9102V27.9102" stroke="#241E20" stroke-width="2.2" stroke-miterlimit="10"/>
</svg>