<svg width="238" height="56" viewBox="0 0 238 56" fill="none" xmlns="http://www.w3.org/2000/svg">
<path d="M232.14 55.4608H10.7773L12.8676 50.2478H234.24L232.14 55.4608Z" fill="white"/>
<path d="M166.118 41.1408C165.766 42.3666 164.608 43.114 163.534 42.8089C162.457 42.5044 161.87 41.2635 162.222 40.0378C162.574 38.812 163.731 38.0645 164.807 38.3697C165.882 38.674 166.47 39.9149 166.118 41.1408ZM169.341 24.2203C169.341 24.2203 169.114 30.7721 164.793 34.4993L169.341 24.2203ZM76.8466 40.4589C76.1936 41.9522 74.5653 42.7418 73.3471 42.2159C72.1277 41.69 71.7773 40.0641 72.4308 38.5708C73.085 37.0775 74.6355 36.3121 75.8537 36.8387C77.0731 37.3646 77.4996 38.9656 76.8466 40.4589ZM45.5214 16.7652C45.5214 16.7652 47.1133 22.752 40.4045 29.8688L45.5214 16.7652ZM228.019 41.6659C226.995 41.6659 227.345 40.5019 227.345 40.5019L230.7 32.6874L220.896 32.7016L219.113 36.8493H224.118L222.043 41.6659H200.422C199.323 41.7096 199.586 40.8251 199.586 40.8251L202.576 32.6941L197.932 32.7016L194.639 41.5024C194.519 41.7827 194.095 42.2626 193.317 42.0878C192.468 41.8264 192.933 40.6556 192.933 40.6556L195.603 32.7016L190.947 32.6986L187.927 41.6659L169.057 41.672C170.251 37.4362 166.84 35.7417 166.84 35.7417C178.437 24.5594 168.914 15.8219 168.914 15.8219L157.825 41.6659C157.825 41.6659 138.607 41.681 136.629 41.6659C134.652 41.6516 135.296 40.6623 135.663 40.3421C137.319 38.8451 144.156 32.6926 144.156 32.6926H138.187L131.971 37.9259L139.381 20.6627H133.583L125.613 41.6516C125.613 41.6516 105.911 41.6591 102.348 41.6607C101.966 41.6607 101.618 41.4316 101.485 41.0752C101.21 40.3301 101.255 39.3943 101.682 38.5234C102.412 37.0293 103.984 36.291 105.193 36.8741C105.891 37.2109 106.313 37.9139 106.407 38.7351H110.24C110.29 36.1681 109.158 33.8732 107.06 32.8614C103.935 31.3538 99.8705 33.2622 97.9824 37.1235C97.2452 38.6319 96.955 40.2133 97.0533 41.672H80.7247C82.0728 37.9387 80.9113 34.0977 77.8817 32.7898C74.6841 31.4088 70.6146 33.4159 68.9009 37.333C68.266 38.7848 67.9934 40.2834 68.0642 41.6659H68.0607H52.5397C49.8117 41.4971 50.6952 38.7916 50.6952 38.7916L60.4162 16.2574H53.2534L46.0894 33.8778C43.8074 38.5241 41.7165 39.7899 41.2827 39.9639C37.7561 41.3781 38.4152 37.0971 38.4152 37.0971C57.0051 18.6292 44.8958 0.839355 44.8958 0.839355L32.1053 36.0808C14.0265 43.8742 5.32839 33.5394 5.32839 33.5394L0.552734 43.0274C16.756 52.516 31.2521 42.1805 31.2521 42.1805C32.4117 45.6372 34.0195 47.1388 35.7085 47.5389C40.6715 48.4535 44.2139 43.1969 44.2139 43.1969C45.2962 46.5413 48.1273 46.8412 48.5201 46.8465C48.913 46.8525 63.3582 46.8465 63.3582 46.8465C67.1099 46.8465 68.768 44.5289 68.8096 44.5297C69.3555 45.5762 70.1869 46.4148 71.3016 46.8962C73.8029 47.9766 76.9572 46.9361 79.0343 44.5598C79.8102 46.7229 81.7223 46.8465 81.7223 46.8465C81.7223 46.8465 91.2303 46.8593 93.4894 46.8465C95.69 46.8352 97.7671 44.6916 97.8753 44.5794C98.4154 45.5596 99.2732 46.7816 100.784 46.8465C100.783 46.8465 118.813 46.8427 120.121 46.8465C121.976 46.8525 124.574 44.547 124.574 44.547L123.622 46.8465H128.148L129.744 43.1358C130.843 46.3808 133.433 46.8412 133.758 46.8465C134.082 46.8525 153.562 46.8465 153.562 46.8465C156.404 46.8902 158.323 44.5184 158.323 44.5184C159.389 46.4773 160.56 47.1524 161.801 47.2849C165.045 47.6308 167.181 45.2303 167.181 45.2303C167.522 46.5858 168.764 46.848 169.061 46.8465C169.357 46.8449 183.197 46.8465 183.197 46.8465C186.199 46.5556 187.84 44.5915 187.84 44.5915C188.518 46.6792 190.104 47.19 191.195 47.3068C194.265 47.5117 195.834 44.5523 195.834 44.5523C196.907 46.5707 198.646 46.848 199.074 46.8465C199.503 46.8449 217.986 46.8465 217.986 46.8465C220.544 46.6777 221.735 44.5327 221.735 44.5327C222.329 46.4441 223.465 46.848 224.021 46.8465C224.575 46.8449 235.724 46.8465 235.724 46.8465L237.955 41.6621L228.019 41.6659Z" fill="white"/>
</svg>