<svg width="51" height="56" viewBox="0 0 51 56" fill="none" xmlns="http://www.w3.org/2000/svg">
    <g clip-path="url(#clip0_16_914)">
        <path d="M14.7939 1.19141V9.53183H7.64494V1.19141C3.9275 1.19141 1.68749 4.45609 1.68749 8.34034V10.7233C1.64434 12.2616 2.07961 13.7755 2.93326 15.0559C3.7869 16.3364 5.01686 17.3204 6.45345 17.8723V50.0425C6.45345 51.3065 6.95558 52.5187 7.84937 53.4125C8.74316 54.3063 9.9554 54.8084 11.2194 54.8084C12.4834 54.8084 13.6957 54.3063 14.5894 53.4125C15.4832 52.5187 15.9854 51.3065 15.9854 50.0425V17.8723C17.422 17.3204 18.6519 16.3364 19.5056 15.0559C20.3592 13.7755 20.7945 12.2616 20.7513 10.7233V8.34034C20.7513 4.45609 18.5113 1.19141 14.7939 1.19141Z" stroke="#241E20" stroke-width="2.2" stroke-linejoin="round"/>
        <path d="M11.2195 47.6594V50.0424" stroke="#241E20" stroke-width="2.2" stroke-linejoin="round"/>
        <path d="M18.3684 41.702H42.1982C43.1462 41.702 44.0554 41.3253 44.7257 40.655C45.3961 39.9847 45.7727 39.0755 45.7727 38.1275V30.9785C45.8007 30.4737 45.7319 29.9682 45.5701 29.4892L44.3786 27.6185C44.2739 27.4598 44.2088 27.2783 44.1886 27.0892C44.1684 26.9 44.1938 26.7088 44.2626 26.5315C44.3314 26.3543 44.4417 26.196 44.5842 26.0701C44.7266 25.9441 44.8972 25.8541 45.0816 25.8075L48.1556 25.0211C48.4716 25.0211 48.7747 24.8955 48.9982 24.6721C49.2216 24.4487 49.3471 24.1456 49.3471 23.8296V21.4466C49.3471 21.1306 49.2216 20.8276 48.9982 20.6041C48.7747 20.3807 48.4716 20.2551 48.1556 20.2551H42.8416C42.6433 20.2542 42.448 20.3027 42.2732 20.3963C42.0984 20.49 41.9498 20.6257 41.8407 20.7913L40.268 23.1743C39.1229 24.1516 37.7285 24.791 36.2408 25.0211H18.3684" stroke="#241E20" stroke-width="2.2" stroke-miterlimit="10"/>
        <path d="M23.1343 13.1062C27.0775 13.1392 31.0127 13.4698 34.9062 14.0951C35.872 14.2877 36.7544 14.7747 37.4321 15.4892C37.9802 16.1326 40.8398 22.2926 40.8398 22.2926" stroke="#241E20" stroke-width="2.2" stroke-miterlimit="10"/>
        <path d="M42.1981 29.7871C40.671 31.3121 38.6013 32.1691 36.4432 32.1701H33.8577" stroke="#241E20" stroke-width="2.2" stroke-miterlimit="10"/>
        <path d="M44.5811 40.5105V45.2765C44.5811 45.5925 44.4555 45.8955 44.2321 46.1189C44.0086 46.3424 43.7056 46.4679 43.3896 46.4679H35.0492C34.7332 46.4679 34.4301 46.3424 34.2066 46.1189C33.9832 45.8955 33.8577 45.5925 33.8577 45.2765V41.702" stroke="#241E20" stroke-width="2.2" stroke-miterlimit="10"/>
        <path d="M18.3684 36.936H33.8578" stroke="#241E20" stroke-width="2.2" stroke-miterlimit="10"/>
    </g>
    <defs>
        <clipPath id="clip0_16_914">
            <rect width="50.0426" height="56" fill="#241E20" transform="translate(0.340576)"/>
        </clipPath>
    </defs>
</svg>