<svg width="50" height="50" viewBox="0 0 50 50" fill="none" xmlns="http://www.w3.org/2000/svg">
<path d="M27.0099 2.09576C26.8784 2.09705 26.7485 2.12425 26.6275 2.17582C26.5066 2.22738 26.3969 2.30229 26.305 2.39626C26.213 2.49024 26.1405 2.60142 26.0915 2.72346C26.0425 2.8455 26.0181 2.976 26.0197 3.10748C26.1066 10.4626 26.5364 15.642 29.547 19.1094C32.5576 22.5769 37.8325 23.8874 46.8927 23.9864C47.0326 23.988 47.1713 23.9603 47.2998 23.905C47.4283 23.8497 47.5438 23.7681 47.6387 23.6654C47.7337 23.5626 47.8061 23.4411 47.8512 23.3087C47.8963 23.1763 47.9131 23.0359 47.9005 22.8965C46.9003 11.8801 38.1259 3.10306 27.1095 2.09967C27.0764 2.09671 27.0431 2.09541 27.0099 2.09576ZM22.9005 2.10162C22.8751 2.10195 22.8497 2.10326 22.8244 2.10553C11.839 3.13821 3.09688 11.9019 2.09974 22.8965C2.08718 23.0359 2.10399 23.1763 2.14908 23.3087C2.19418 23.4411 2.26655 23.5626 2.36153 23.6654C2.45651 23.7681 2.57199 23.8497 2.70049 23.905C2.82899 23.9603 2.96767 23.988 3.10756 23.9864C12.1411 23.8823 17.4022 22.5692 20.4025 19.1016C23.4027 15.634 23.8287 10.4593 23.9162 3.11334C23.9177 2.97971 23.8925 2.84713 23.842 2.72341C23.7914 2.5997 23.7166 2.48737 23.6219 2.39306C23.5273 2.29875 23.4146 2.22437 23.2907 2.17431C23.1668 2.12425 23.0341 2.09954 22.9005 2.10162ZM28.1076 4.3067C37.2113 5.66762 44.3529 12.8162 45.6994 21.9239C37.6996 21.7116 33.338 20.4264 31.0568 17.7989C28.8139 15.2156 28.2517 10.766 28.1076 4.3067ZM21.8302 4.31451C21.6858 10.7643 21.1234 15.2104 18.8888 17.793C16.6161 20.4197 12.2718 21.7047 4.30092 21.9219C5.64489 12.836 12.7569 5.69845 21.8302 4.31451ZM3.10756 26.0137C2.96767 26.0121 2.82899 26.0398 2.70049 26.0951C2.57199 26.1504 2.45651 26.232 2.36153 26.3348C2.26655 26.4375 2.19418 26.559 2.14908 26.6914C2.10399 26.8238 2.08718 26.9642 2.09974 27.1036C3.0979 38.099 11.8389 46.8629 22.8244 47.8946C22.9638 47.9074 23.1045 47.8908 23.2371 47.8459C23.3698 47.8009 23.4915 47.7286 23.5945 47.6336C23.6974 47.5386 23.7792 47.423 23.8346 47.2943C23.8901 47.1657 23.9178 47.0268 23.9162 46.8868C23.8287 39.5408 23.4027 34.3662 20.4025 30.8985C17.4022 27.4307 12.1411 26.1173 3.10756 26.0137ZM46.8927 26.0137C37.8325 26.1127 32.5574 27.4232 29.547 30.8907C26.5366 34.3582 26.1071 39.5375 26.0197 46.8926C26.018 47.0325 26.0457 47.1712 26.101 47.2997C26.1563 47.4282 26.238 47.5437 26.3407 47.6387C26.4434 47.7336 26.5649 47.806 26.6973 47.8511C26.8298 47.8962 26.9702 47.913 27.1095 47.9004C38.125 46.897 46.8992 38.1219 47.9005 27.1055C47.9134 26.966 47.8968 26.8254 47.8518 26.6927C47.8069 26.5601 47.7345 26.4383 47.6395 26.3354C47.5445 26.2325 47.4289 26.1507 47.3003 26.0952C47.1716 26.0398 47.0328 26.0121 46.8927 26.0137ZM45.6994 28.0762C44.3521 37.184 37.2104 44.3325 28.1076 45.6934C28.2521 39.2341 28.814 34.7845 31.0568 32.2012C33.3379 29.5737 37.6996 28.2885 45.6994 28.0762ZM4.30092 28.0782C12.2718 28.295 16.6161 29.5803 18.8888 32.2071C21.1234 34.7899 21.6858 39.2357 21.8302 45.6856C12.757 44.3024 5.6456 37.1651 4.30092 28.0782Z" fill="white"/>
</svg>
