<svg width="13" height="12" viewBox="0 0 13 12" fill="none" xmlns="http://www.w3.org/2000/svg">
<path fill-rule="evenodd" clip-rule="evenodd" d="M6.23047 1.09091C3.51925 1.09091 1.32138 3.28878 1.32138 6C1.32138 8.71122 3.51925 10.9091 6.23047 10.9091C8.94168 10.9091 11.1396 8.71122 11.1396 6C11.1396 3.28878 8.94168 1.09091 6.23047 1.09091ZM0.230469 6C0.230469 2.68629 2.91676 0 6.23047 0C9.54418 0 12.2305 2.68629 12.2305 6C12.2305 9.31371 9.54418 12 6.23047 12C2.91676 12 0.230469 9.31371 0.230469 6Z" fill="#808082"/>
<path fill-rule="evenodd" clip-rule="evenodd" d="M6.23051 3.27246C6.53176 3.27246 6.77597 3.51667 6.77597 3.81792V5.99973C6.77597 6.30098 6.53176 6.54519 6.23051 6.54519C5.92927 6.54519 5.68506 6.30098 5.68506 5.99973V3.81792C5.68506 3.51667 5.92927 3.27246 6.23051 3.27246Z" fill="#808082"/>
<path fill-rule="evenodd" clip-rule="evenodd" d="M5.68506 8.18217C5.68506 7.88093 5.92927 7.63672 6.23051 7.63672H6.23597C6.53721 7.63672 6.78142 7.88093 6.78142 8.18217C6.78142 8.48342 6.53721 8.72763 6.23597 8.72763H6.23051C5.92927 8.72763 5.68506 8.48342 5.68506 8.18217Z" fill="#808082"/>
</svg>
